<?xml version="1.0" standalone="no"?>
<!DOCTYPE svg PUBLIC "-//W3C//DTD SVG 20010904//EN"
 "http://www.w3.org/TR/2001/REC-SVG-20010904/DTD/svg10.dtd">
<svg version="1.0" xmlns="http://www.w3.org/2000/svg"
 width="512.000000pt" height="512.000000pt" viewBox="0 0 512.000000 512.000000"
 preserveAspectRatio="xMidYMid meet">
<metadata>
Created by potrace 1.14, written by Peter Selinger 2001-2017
</metadata>
<g transform="translate(0.000000,512.000000) scale(0.100000,-0.100000)"
fill="#000000" stroke="none">
<path d="M2367 5114 c-1 -1 -31 -4 -67 -8 -251 -24 -590 -114 -785 -209 -16
-8 -48 -23 -70 -33 -59 -26 -240 -130 -322 -185 -165 -111 -376 -298 -493
-438 -25 -30 -50 -59 -55 -65 -54 -58 -187 -254 -252 -371 -147 -266 -265
-614 -297 -880 -4 -27 -10 -81 -15 -120 -9 -69 -7 -481 2 -520 3 -11 9 -49 13
-85 4 -36 9 -67 9 -70 1 -3 5 -23 9 -45 5 -22 14 -65 21 -95 8 -30 16 -66 19
-80 2 -14 22 -80 45 -147 57 -176 133 -346 212 -478 10 -16 26 -43 35 -60 91
-163 300 -413 481 -577 344 -311 839 -546 1290 -614 21 -3 52 -8 68 -11 47 -8
81 -11 218 -18 l127 -7 0 606 c0 478 3 606 13 607 6 0 45 1 86 2 l73 2 78 195
c42 107 139 353 215 545 75 193 143 364 150 380 7 17 52 129 99 250 47 121 90
226 94 234 29 52 31 13 30 -801 l0 -823 385 -3 386 -2 0 1430 0 1430 -489 0
-489 0 -15 -32 c-8 -18 -149 -359 -315 -758 l-301 -725 0 1293 0 1293 -96 -3
c-53 -2 -96 -4 -97 -4z"/>
</g>
</svg>
